<?xml version="1.0" standalone="no"?>
<!DOCTYPE svg PUBLIC "-//W3C//DTD SVG 20010904//EN"
 "http://www.w3.org/TR/2001/REC-SVG-20010904/DTD/svg10.dtd">
<svg version="1.0" xmlns="http://www.w3.org/2000/svg"
 width="512.000000pt" height="512.000000pt" viewBox="0 0 512.000000 512.000000"
 preserveAspectRatio="xMidYMid meet">

<g transform="translate(0.000000,512.000000) scale(0.100000,-0.100000)"
fill="#989898" stroke="none">
<path d="M1181 4960 c-178 -26 -341 -158 -412 -337 l-24 -58 -3 -1968 c-3
-2167 -6 -2035 59 -2157 60 -114 189 -216 317 -251 63 -18 137 -19 1585 -19
l1519 0 34 34 34 34 0 1934 c0 1736 -2 1936 -16 1956 -33 47 -59 52 -274 52
l-200 0 0 354 c0 347 0 354 -22 381 -45 58 19 55 -1315 54 -675 -1 -1252 -5
-1282 -9z m2379 -505 l0 -275 -1168 0 c-1307 0 -1230 -4 -1316 71 -58 52 -87
106 -93 180 -12 132 72 249 205 285 37 10 306 13 1210 13 l1162 1 0 -275z
m-2418 -500 c46 -11 126 -15 296 -15 l232 0 0 -854 0 -853 23 -34 c26 -39 60
-59 102 -59 20 0 101 42 252 130 l222 130 193 -113 c278 -164 277 -164 338
-132 63 32 60 -10 60 930 l0 855 595 0 595 0 0 -1765 0 -1765 -1427 0 c-1390
0 -1429 1 -1471 20 -70 32 -110 69 -142 133 l-30 60 0 1699 0 1698 50 -25 c27
-14 78 -32 112 -40z m1478 -749 l0 -735 -122 73 c-180 107 -206 119 -244 113
-18 -3 -100 -45 -181 -93 -81 -48 -151 -89 -155 -91 -5 -2 -8 327 -8 731 l0
736 355 0 355 0 0 -734z"/>
</g>
</svg>
