<?xml version="1.0" standalone="no"?>
<!DOCTYPE svg PUBLIC "-//W3C//DTD SVG 20010904//EN"
 "http://www.w3.org/TR/2001/REC-SVG-20010904/DTD/svg10.dtd">
<svg version="1.0" xmlns="http://www.w3.org/2000/svg"
 width="64.000000pt" height="64.000000pt" viewBox="0 0 64.000000 64.000000"
 preserveAspectRatio="xMidYMid meet">

<g transform="translate(0.000000,64.000000) scale(0.100000,-0.100000)"
fill="#000000" stroke="none">
<path d="M138 609 c-16 -9 -18 -31 -18 -239 0 -125 3 -236 6 -244 4 -9 23 -19
45 -22 38 -6 39 -8 39 -46 l0 -40 25 16 c23 15 27 15 50 0 l25 -16 0 41 0 41
83 0 c134 0 127 -14 127 265 0 221 -1 235 -19 245 -26 13 -340 13 -363 -1z
m42 -248 c0 -125 -3 -230 -6 -234 -3 -3 -12 -3 -20 0 -11 4 -14 47 -14 233 0
225 3 250 33 233 4 -2 7 -107 7 -232z m304 233 c12 -5 16 -21 16 -75 l0 -69
-150 0 -150 0 0 75 0 75 134 0 c74 0 141 -3 150 -6z m16 -234 l0 -70 -150 0
-150 0 0 70 0 70 150 0 150 0 0 -70z m0 -159 c0 -54 -4 -70 -16 -75 -9 -3 -76
-6 -150 -6 l-134 0 0 75 0 75 150 0 150 0 0 -69z m-210 -119 c0 -14 -8 -19
-30 -19 -22 0 -30 5 -30 19 0 13 8 18 30 18 22 0 30 -5 30 -18z"/>
</g>
</svg>
