<?xml version="1.0" encoding="UTF-8"?>
<svg width="40px" fill="#989898" height="40px" version="1.1" viewBox="0 0 700 600" xmlns="http://www.w3.org/2000/svg">
 <path d="m268.17 68.141c-14.594 0.007813-28.59 8.7383-38.906 24.273-10.32 15.539-16.113 36.609-16.113 58.578 0 17.273 3.5859 34.117 10.258 48.176 6.6758 14.055 16.102 24.617 26.957 30.211l-6.2422 238.42c-0.34766 13.324 10.73 24.062 24.062 24.062 13.328 0 24.41-10.734 24.062-24.062l-6.2422-238.42h-0.003906c10.859-5.5938 20.285-16.156 26.957-30.211 6.6758-14.059 10.262-30.902 10.262-48.176 0-21.977-5.7969-43.047-16.117-58.586-10.324-15.539-24.32-24.266-38.918-24.266h-0.015625zm108.21 0.72266v137.75c0 10.195 25.23 30.027 37.047 36.895l-5.8711 224.29c-0.34766 13.324 10.73 24.062 24.059 24.062 13.328 0 24.41-10.734 24.062-24.062l-5.8711-224.29c11.816-6.8672 37.047-26.699 37.047-36.895v-137.75h-22.488v105.09c0 5.4688-4.4023 9.8672-9.8672 9.8672h-1.0938c-5.4688 0-9.8672-4.4023-9.8672-9.8672v-105.09h-23.84v105.09c0 5.4688-4.4023 9.8672-9.8672 9.8672h-1.0938c-5.4688 0-9.8672-4.4023-9.8672-9.8672v-105.09z" fill-rule="evenodd"/>
</svg>
