<?xml version="1.0" encoding="UTF-8"?>
<svg width="40px" fill="#989898" height="40px" version="1.1" viewBox="0 0 700 600" xmlns="http://www.w3.org/2000/svg">
 <g>
  <path d="m350 87.512c-125.44 0-227.49 102.05-227.49 227.49s102.05 227.49 227.49 227.49 227.49-102.05 227.49-227.49-102.05-227.49-227.49-227.49zm0 35.008c106.52 0 192.48 85.961 192.48 192.48 0 106.52-85.961 192.48-192.48 192.48-106.52 0-192.48-85.961-192.48-192.48 0-106.52 85.961-192.48 192.48-192.48z" fill-rule="evenodd"/>
  <path d="m279.99 17.496c-6.2539 0-12.035 3.3359-15.16 8.7539-3.1289 5.4141-3.1289 12.086 0 17.504 3.125 5.4141 8.9062 8.75 15.16 8.75h140.04c6.25 0 12.031-3.3359 15.156-8.75 3.1289-5.418 3.1289-12.09 0-17.504-3.125-5.418-8.9062-8.7539-15.156-8.7539z"/>
  <path d="m349.75 157.27c-4.6328 0.070313-9.0469 1.9688-12.281 5.2852-3.2305 3.3203-5.0156 7.7812-4.9648 12.414v140.04c-0.011719 4.6484 1.8242 9.1094 5.1016 12.402l70.016 69.953h0.003906c3.2422 3.4531 7.7461 5.4492 12.484 5.5234 4.7383 0.074219 9.3047-1.7734 12.652-5.125 3.3516-3.3516 5.2031-7.9141 5.125-12.652-0.074218-4.7383-2.0703-9.2461-5.5234-12.488l-64.852-64.852v-132.8 0.003906c0.054688-4.7227-1.8008-9.2617-5.1484-12.598-3.3438-3.332-7.8906-5.1719-12.613-5.1016z"/>
 </g>
</svg>
